# xmcd CD database file
#
# Track frame offsets:
#	150
#	17127
#	35432
#	61177
#	71910
#	110105
#	143490
#	177315
#	199577
#	269765
#	320475
#
# Disc length: 4449 seconds
#
# Revision: 0
# Processed by: cddbd v1.5.1PL0 Copyright (c) Steve Scherf et al.
# Submitted via: CDex 1.50
#
DISCID=a5115f0b
DTITLE=Abeleen, Staffan and Färnlöf, Lars  - Quintets 1961-66
DYEAR=1993
DGENRE=Jazz
TTITLE0=Pia
TTITLE1=Juan-Les-Pins
TTITLE2=Intro and Över stock och sten
TTITLE3=Farfars vals
TTITLE4=Puschkin 55 and Coda
TTITLE5=Päronet i Montecello
TTITLE6=Atarax
TTITLE7=Fin sikt över havet
TTITLE8=Relax - Float Downstream
TTITLE9=Maybe Tomorrow
TTITLE10=Heavenly Blue
EXTD=YEAR: 1993
EXTT0=
EXTT1=
EXTT2=
EXTT3=
EXTT4=
EXTT5=
EXTT6=
EXTT7=
EXTT8=
EXTT9=
EXTT10=
PLAYORDER=
